<?xml version="1.0" encoding="UTF-8"?>
<svg version="1.1" xmlns="http://www.w3.org/2000/svg" width="128" height="128">
<path d="M0 0 C14.66593153 10.19568513 25.60840641 23.74932626 29.74780273 41.46484375 C31.86603529 54.29763126 31.44584138 68.79991362 26.125 80.75 C25.76277344 81.62269531 25.40054688 82.49539062 25.02734375 83.39453125 C17.33536706 100.36902897 3.07751411 111.05081733 -13.734375 117.91796875 C-30.02500275 122.93228047 -49.3872321 120.84818754 -64.375 113.25 C-80.79373216 104.34772371 -91.48385123 89.95575147 -96.98828125 72.1484375 C-100.09059644 59.05712927 -99.35177869 43.05030624 -93.875 30.75 C-93.51277344 29.87730469 -93.15054688 29.00460938 -92.77734375 28.10546875 C-85.8549626 12.82929883 -73.23462165 1.78063924 -57.87109375 -4.47265625 C-38.93392049 -11.50790437 -17.48941603 -10.43527048 0 0 Z " fill="#29A71A" transform="translate(97.875,8.25)"/>
<path d="M0 0 C10.2451492 5.17074928 18.35620625 12.32552034 22.4921875 23.2578125 C26.29376531 35.03184207 24.91683136 45.2224552 19.4921875 56.2578125 C14.27437259 65.1207488 6.63766873 71.66696263 -2.9453125 75.3828125 C-11.95795559 77.59644414 -21.79311563 77.43817601 -30.5078125 74.2578125 C-36.89685063 73.3567943 -42.77215979 74.88972337 -48.90625 76.6015625 C-51.5078125 77.2578125 -51.5078125 77.2578125 -54.5078125 77.2578125 C-54.7013656 72.90286775 -54.34705683 69.04268674 -53.5078125 64.7578125 C-52.32971328 58.52829503 -51.97590854 53.63713474 -54.0078125 47.5703125 C-57.15864476 37.62031588 -56.01764414 28.57159523 -51.5078125 19.2578125 C-41.48634366 0.72698995 -19.91483877 -8.45051022 0 0 Z " fill="#2CA81D" transform="translate(79.5078125,26.7421875)"/>
<path d="M0 0 C10.2451492 5.17074928 18.35620625 12.32552034 22.4921875 23.2578125 C26.29376531 35.03184207 24.91683136 45.2224552 19.4921875 56.2578125 C14.27437259 65.1207488 6.63766873 71.66696263 -2.9453125 75.3828125 C-11.95795559 77.59644414 -21.79311563 77.43817601 -30.5078125 74.2578125 C-36.89685063 73.3567943 -42.77215979 74.88972337 -48.90625 76.6015625 C-51.5078125 77.2578125 -51.5078125 77.2578125 -54.5078125 77.2578125 C-54.7013656 72.90286775 -54.34705683 69.04268674 -53.5078125 64.7578125 C-52.32971328 58.52829503 -51.97590854 53.63713474 -54.0078125 47.5703125 C-57.15864476 37.62031588 -56.01764414 28.57159523 -51.5078125 19.2578125 C-41.48634366 0.72698995 -19.91483877 -8.45051022 0 0 Z M-33.5078125 11.2578125 C-34.5803125 11.9796875 -35.6528125 12.7015625 -36.7578125 13.4453125 C-44.33005417 21.18965057 -46.79867577 28.83573395 -46.7421875 39.44140625 C-46.5178057 42.13772753 -45.99746191 44.07284818 -45.0078125 46.5703125 C-42.66623137 52.59466208 -43.26357596 58.89861675 -43.5078125 65.2578125 C-42.75757813 65.13921875 -42.00734375 65.020625 -41.234375 64.8984375 C-35.72602729 64.20469094 -31.56585729 63.84530402 -26.4453125 66.1953125 C-19.17665394 69.52774861 -12.4350364 69.11722415 -4.8828125 66.7578125 C4.05621837 63.10557989 9.6286073 57.25200822 13.6171875 48.5546875 C16.50788542 40.96660547 16.68908047 32.59135445 13.8671875 24.9453125 C9.84709407 16.17419956 3.7489435 11.32146544 -4.7734375 7.1484375 C-14.4862124 3.98484796 -25.20054461 5.52866223 -33.5078125 11.2578125 Z " fill="#F8FCF7" transform="translate(79.5078125,26.7421875)"/>
<path d="M0 0 C2.3125 0.0625 2.3125 0.0625 5 1 C6.95534691 4.38926798 8.11692504 6.7430558 7.75 10.6875 C7 13 7 13 6.21875 14.88671875 C5.74370812 17.14477943 5.74370812 17.14477943 7.546875 19.0703125 C8.63742188 20.08738281 8.63742188 20.08738281 9.75 21.125 C10.46671875 21.80820313 11.1834375 22.49140625 11.921875 23.1953125 C15.308799 26.15523698 15.308799 26.15523698 19.5625 27.25 C22.18017538 27.24067222 22.18017538 27.24067222 24 25 C28.34906427 25.32823127 32.0342632 26.19739236 36 28 C35.52048204 32.31566167 34.29764982 34.2019941 31 37 C27.72000727 38.63999637 24.54357341 38.50368518 21 38 C10.80212807 34.59517305 2.18146053 26.96508831 -3.16015625 17.7265625 C-5.1207378 13.69597158 -5.45128963 10.43768136 -5 6 C-3.54350922 3.6675777 -1.93900636 1.98748152 0 0 Z " fill="#F8FCF7" transform="translate(49,45)"/>
</svg>
