<svg xmlns="http://www.w3.org/2000/svg" width="430" height="430" style="width:100%;height:100%;transform:translate3d(0,0,0);content-visibility:visible" viewBox="0 0 430 430"><defs><clipPath id="d"><path d="M0 0h430v430H0z"/></clipPath><clipPath id="j"><path d="M0 0h430v430H0z"/></clipPath><clipPath id="k"><path d="M0 0h430v430H0z"/></clipPath><clipPath id="e"><path d="M0 0h430v430H0z"/></clipPath><clipPath id="h"><path d="M0 0h430v430H0z"/></clipPath><clipPath id="f"><path d="M0 0h430v430H0z"/></clipPath><path id="a" style="display:none"/><path id="b" style="display:none"/><path id="c" fill="#F9C9C0" d="M-46.998-50h93.996a3 3 0 0 1 3 3v94a3 3 0 0 1-3 3h-93.996a3 3 0 0 1-3-3v-94a3 3 0 0 1 3-3z" style="display:block" transform="translate(135.035 161.75)"/><mask id="l" mask-type="alpha"><use xmlns:ns1="http://www.w3.org/1999/xlink" ns1:href="#a"/></mask><mask id="i" mask-type="alpha"><use xmlns:ns2="http://www.w3.org/1999/xlink" ns2:href="#b"/></mask><mask id="g" mask-type="alpha"><use xmlns:ns3="http://www.w3.org/1999/xlink" ns3:href="#c"/></mask></defs><g clip-path="url(#d)"><g clip-path="url(#e)" style="display:block"><path fill="#3A3347" d="M-80.05-13.35h160.1m-160.1 0v23.7a3 3 0 0 0 3 3h154.1a3 3 0 0 0 3-3v-23.7" class="secondary" style="display:block" transform="translate(215.15 255.15)"/><g opacity=".5" style="mix-blend-mode:multiply;display:block"><path fill="#3A3347" d="M135.1 265.5v-23.7h80.05v26.7H138.1a3 3 0 0 1-3-3z" class="secondary" opacity="1"/></g><path fill="#EBE6EF" d="M-36.7-53.35v103.7a3 3 0 0 0 3 3h67.4a3 3 0 0 0 3-3v-103.7" class="tertiary" style="display:block" transform="translate(215.1 321.85)"/><g opacity=".5" style="mix-blend-mode:multiply;display:block"><path fill="#EBE6EF" d="M178.4 372.2V268.5h36.7v106.7h-33.7a3 3 0 0 1-3-3z" class="tertiary" opacity="1"/></g><path fill="#4BB3FD" d="M-157.1-80.05h314.2a3 3 0 0 1 3 3v154.1a3 3 0 0 1-3 3h-314.2a3 3 0 0 1-3-3v-154.1a3 3 0 0 1 3-3z" class="quinary" style="display:block" transform="translate(215.1 161.75)"/><g opacity=".5" style="mix-blend-mode:multiply;display:block"><path fill="#4BB3FD" d="M66.94 93.639h296.32v136.222H66.94V93.639zM375.2 84.7a3 3 0 0 0-3-3H58a3 3 0 0 0-3 3v154.1a3 3 0 0 0 3 3h314.2a3 3 0 0 0 3-3V84.7z" class="quinary" opacity="1"/></g><path fill="none" stroke="#3A3347" stroke-linecap="round" stroke-linejoin="round" stroke-width="8" d="M160.1 0h-320.2" class="secondary" style="display:block" transform="translate(215.1 55)"/><path fill="none" stroke="#3A3347" stroke-linecap="round" stroke-linejoin="round" stroke-width="8" d="M0-20v40" class="secondary" style="display:block" transform="translate(348.5 75)"/><path fill="none" stroke="#3A3347" stroke-linecap="round" stroke-linejoin="round" stroke-width="8" d="M0-20v40" class="secondary" style="display:block" transform="translate(215.1 75)"/><path fill="none" stroke="#3A3347" stroke-linecap="round" stroke-linejoin="round" stroke-width="8" d="M0-20v40" class="secondary" style="display:block" transform="translate(81.699 75)"/><path class="senary" style="display:none"/><path fill="none" stroke="#EBE6EF" stroke-linecap="round" stroke-linejoin="round" stroke-width="7" d="M120.1 13.35H0m120.1 26.7H0" class="tertiary" style="display:block" transform="translate(215.1 158.25)"/><path fill="none" class="tertiary" style="display:none"/><g clip-path="url(#f)" mask="url(#g)" style="display:block"><path fill="#F9C9C0" d="M-46.998-50h93.996a3 3 0 0 1 3 3v94a3 3 0 0 1-3 3h-93.996a3 3 0 0 1-3-3v-94a3 3 0 0 1 3-3z" class="senary" style="display:block" transform="translate(135.035 161.75)"/><path fill="#08A88A" d="M39.482 30.079h-76.653a2.995 2.995 0 0 1-2.311-1.112l36.596-57.654c1.178-1.856 3.888-1.856 5.066 0l37.302 58.766z" class="primary" style="display:block" transform="translate(125.187 181.671)"/><g opacity=".5" style="mix-blend-mode:multiply;display:block"><path fill="#08A88A" d="m140 172.594-24.172 39.046 11.516-.046 18.594-29.5-5.938-9.5z" class="primary" opacity="1"/></g><path fill="#08A88A" d="m2.878-20.146 25.769 40.597c.39.79.012 1.79-.918 1.79l-56.376-.703 26.459-41.684c1.178-1.856 3.888-1.856 5.066 0z" class="primary" style="display:block" transform="translate(155.698 190.118)"/><path fill="#08A88A" d="m39.482 30.079-76.668.812c-.933-.006-2.845.251-2.296-1.924l36.596-57.654c1.178-1.856 3.888-1.856 5.066 0l37.302 58.766z" class="primary" style="display:block" transform="translate(225.156 181.671)"/><path fill="#08A88A" d="m2.878-20.146 25.769 40.597a2.993 2.993 0 0 1-2.311 1.087h-54.983l26.459-41.684c1.178-1.856 3.888-1.856 5.066 0z" class="primary" style="display:block" transform="translate(255.666 190.212)"/><path fill="#08A88A" d="M39.482 30.079h-76.653a2.995 2.995 0 0 1-2.311-1.112l36.596-57.654c1.178-1.856 3.888-1.856 5.066 0l37.302 58.766z" class="primary" style="display:block" transform="translate(291.75 181.671)"/><path fill="#08A88A" d="m2.878-20.146 25.769 40.597c.39.79.012 1.79-.918 1.79l-56.376-.703 26.459-41.684c1.178-1.856 3.888-1.856 5.066 0z" class="primary" style="display:block" transform="translate(155.698 190.212)"/><path fill="#08A88A" d="m2.878-20.146 25.769 40.597a2.993 2.993 0 0 1-2.311 1.087h-54.983l26.459-41.684c1.178-1.856 3.888-1.856 5.066 0z" class="primary" style="display:block" transform="translate(322.26 190.212)"/><path fill="#F24C00" d="M0-12.484C6.89-12.484 12.484-6.89 12.484 0S6.89 12.484 0 12.484-12.484 6.89-12.484 0-6.89-12.484 0-12.484z" class="quaternary" style="display:block" transform="translate(153.544 134.013)"/><g opacity=".5" style="mix-blend-mode:multiply;display:block"><path fill="#F24C00" d="M152.193 121.966c-6.304.631-11.226 5.952-11.226 12.422 0 6.895 5.589 12.485 12.484 12.485a12.43 12.43 0 0 0 7.585-2.569c-15.599.446-17.161-16.304-8.843-22.338z" class="quaternary" opacity="1"/></g><g opacity=".5" style="mix-blend-mode:multiply;display:block"><path fill="#08A88A" d="m306.5 172.688-24.172 39.046 11.516-.046 18.594-29.5-5.938-9.5z" class="primary" opacity="1"/></g><g opacity=".5" style="mix-blend-mode:multiply;display:block"><path fill="#08A88A" d="m240.25 172.688-24.172 39.046 11.516-.046 18.594-29.5-5.938-9.5z" class="primary" opacity="1"/></g></g><g clip-path="url(#h)" mask="url(#i)" style="display:block"><path fill="#08A88A" d="M39.482 30.079h-76.653a2.995 2.995 0 0 1-2.311-1.112l36.596-57.654c1.178-1.856 3.888-1.856 5.066 0l37.302 58.766z" class="primary" style="display:block" transform="translate(125.187 181.671)"/><g opacity=".5" style="mix-blend-mode:multiply;display:block"><path fill="#08A88A" d="m140 172.313-24.172 39.046 11.516-.046 18.594-29.5-5.938-9.5z" class="primary" opacity="1"/></g><path fill="#08A88A" d="m2.878-20.146 25.769 40.597c.39.79.012 1.79-.918 1.79l-56.376-.703 26.459-41.684c1.178-1.856 3.888-1.856 5.066 0z" class="primary" style="display:block" transform="translate(155.698 190.087)"/><path fill="#08A88A" d="m39.482 30.079-76.668.812c-.933-.006-2.845.251-2.296-1.924l36.596-57.654c1.178-1.856 3.888-1.856 5.066 0l37.302 58.766z" class="primary" style="display:block" transform="translate(225.156 181.671)"/><path fill="#08A88A" d="m2.878-20.146 25.769 40.597a2.993 2.993 0 0 1-2.311 1.087h-54.983l26.459-41.684c1.178-1.856 3.888-1.856 5.066 0z" class="primary" style="display:block" transform="translate(255.666 190.212)"/><path fill="#08A88A" d="M39.482 30.079h-76.653a2.995 2.995 0 0 1-2.311-1.112l36.596-57.654c1.178-1.856 3.888-1.856 5.066 0l37.302 58.766z" class="primary" style="display:block" transform="translate(291.75 181.671)"/><path fill="#08A88A" d="m2.878-20.146 25.769 40.597c.39.79.012 1.79-.918 1.79l-56.376-.703 26.459-41.684c1.178-1.856 3.888-1.856 5.066 0z" class="primary" style="display:block" transform="translate(155.698 190.212)"/><path fill="#08A88A" d="m2.878-20.146 25.769 40.597a2.993 2.993 0 0 1-2.311 1.087h-54.983l26.459-41.684c1.178-1.856 3.888-1.856 5.066 0z" class="primary" style="display:block" transform="translate(322.26 190.212)"/><path fill="#F24C00" d="M0-12.484C6.89-12.484 12.484-6.89 12.484 0S6.89 12.484 0 12.484-12.484 6.89-12.484 0-6.89-12.484 0-12.484z" class="quaternary" style="display:block" transform="translate(153.544 134.013)"/><g opacity=".5" style="mix-blend-mode:multiply;display:block"><path fill="#F24C00" d="M152.193 121.966c-6.304.631-11.226 5.952-11.226 12.422 0 6.895 5.589 12.485 12.484 12.485a12.43 12.43 0 0 0 7.585-2.569c-15.599.446-17.161-16.304-8.843-22.338z" class="quaternary" opacity="1"/></g><g opacity=".5" style="mix-blend-mode:multiply;display:block"><path fill="#08A88A" d="m240.25 172.688-24.172 39.046 11.516-.046 18.594-29.5-5.938-9.5z" class="primary" opacity="1"/></g><g opacity=".5" style="mix-blend-mode:multiply;display:block"><path fill="#08A88A" d="m306.5 172.688-24.172 39.046 11.516-.046 18.594-29.5-5.938-9.5z" class="primary" opacity="1"/></g></g></g><g clip-path="url(#j)" style="display:none"><path class="secondary" style="display:none"/><path class="secondary" style="mix-blend-mode:multiply;display:none"/><path class="tertiary" style="display:none"/><path class="tertiary" style="mix-blend-mode:multiply;display:none"/><path class="quinary" style="display:none"/><path class="quinary" style="mix-blend-mode:multiply;display:none"/><path fill="none" class="secondary" style="display:none"/><path fill="none" class="secondary" style="display:none"/><path fill="none" class="secondary" style="display:none"/><path fill="none" class="secondary" style="display:none"/><path fill="none" class="tertiary" style="display:none"/><g clip-path="url(#k)" mask="url(#l)" style="display:none"><path class="senary" style="display:none"/><path class="primary" style="display:none"/><path class="primary" style="mix-blend-mode:multiply;display:none"/><path class="primary" style="display:none"/><path class="quaternary" style="display:none"/><path class="quaternary" style="mix-blend-mode:multiply;display:none"/></g></g></g></svg>