<?xml version="1.0" encoding="UTF-8"?><svg id="Layer_2" xmlns="http://www.w3.org/2000/svg" viewBox="0 0 181.98 79.26"><defs><style>.cls-1{fill:#1d56a6;}.cls-1,.cls-2,.cls-3,.cls-4,.cls-5,.cls-6{fill-rule:evenodd;}.cls-2{fill:#fdf001;}.cls-3{fill:#ed1b24;}.cls-4{fill:#ee1a24;}.cls-5{fill:#014db3;}</style></defs><g id="Layer_1-2"><g id="Layer_1-3"><g id="_105553776689472"><g><path class="cls-6" d="M16.35,47.39c.32-.64,5.82-10.55,6.51-11.02,.63,3.69,1.29,7.39,1.98,11.09-2.83-.03-5.66-.05-8.49-.06h0Zm-7.23,14.59c-.76-2.79,1.04-4.66,2.39-6.91,.34-.54,.95-1.55,1.39-2,4.21-.02,8.46-.03,12.71-.03,1.35,8.85,.16,6.48-.47,9.07,4.81-.02,9.62-.03,14.46-.05-.53-1.35-.88-1.58-1.32-3.58-.85-4.29-1.63-8.58-2.46-12.85-.73-3.97-2.83-14.05-3.17-17.18-4.75,.06-9.49,.14-14.21,.22,.51,.51,1.04,1.01,1.57,1.53-.16,.69-1.85,3.32-2.29,4.14-.75,1.32-1.57,2.71-2.36,4-2.39,3.97-4.78,7.96-7.11,11.95-.78,1.35-1.54,2.74-2.39,3.98-.85,1.32-1.6,2.71-2.42,3.95-.85,1.28-1.63,2.56-2.46,3.85,2.7-.03,5.44-.06,8.14-.08Z"/><path class="cls-3" d="M9.12,61.98c4.06,.02,8.11,.03,12.2,.05-.19,.45-.97,1.28-1.41,1.85-4.81,6.23-3.24,12.1,5.09,14.31,7.83,2.07,16.95,.76,24.59-.84,12.26-2.59,20.03-5.69,30.94-10.35,1.7-.73,8.4-3.91,9.08-4.91-.34-.02-.69-.02-1-.02-.41,.39-3.36,1.67-3.84,1.87-1.39,.59-2.73,1.19-4.02,1.72-8.27,3.18-18.08,5.58-26.85,7.24-5.94,1.13-14.4,2.17-20.6,1.04-3.84-.67-9.96-2.61-9.81-7.5,.06-2.15,1.26-2.98,1.63-4.32,.63-2.59,1.82-.22,.47-9.07-4.24,0-8.49,.02-12.71,.03-.44,.45-1.04,1.46-1.39,2-1.35,2.25-3.14,4.12-2.39,6.91h0Z"/><path class="cls-6" d="M53.14,61.88h11.2c-.06-1.9-.44-1.8,.03-4.06,.25-1.28,.63-2.64,.82-3.89,1.17,.25,1.17,1.24,2.11,3.77,.47,1.35,1,2.94,1.54,4.17h9.15c-2.39-5.23-2.99-9.64-4.59-13.44,.19-.39,1.39-1.43,1.79-1.77,.66-.56,1.19-1.09,1.85-1.63,.34-.27,.6-.52,.91-.79,.34-.3,.63-.51,1-.82,.73-.57,1.35-.98,2.07-1.53-2.67-.03-5.35-.05-8.01-.06-.44,1.73-1.98,2.61-3.08,3.57-.82,.79-1.67,1.6-2.46,2.4-.25,.2-.22,.23-.38,.39-.44,.43,0,.2-.63,.45,1-4.68,2.04-9.36,3.08-14.01-3.43-.02-6.85-.02-10.28-.02,.25,1.74,.51,1.81,.1,3.77-1.6,6.93-3.14,13.86-4.75,20.8-.63,1.77-1.19,1.99-1.48,2.71h0Z"/><path class="cls-6" d="M95.43,52.34c-.91,5.67-1.17,5.75-3.58,5.75-.56,0-2.29,.06-2.7-.22-.78-.54,.25-4.51,.75-5.01,.85-.82,4.24-.52,5.53-.52h0Zm-6.82,9.73c.32,0,.66,0,1,.02,2.61-.1,3.43-.08,4.56-2.14,.03,.69,.06,1.4,.1,2.11h8.68c-1.35-4.29,4.12-15.28,1.48-18.78-1.54-2.05-6.41-1.44-9.21-1.44-3.55,0-7.11,.05-10.63,0-.54,1.6-1.07,3.19-1.54,4.79,2.58-.93,3.65-.81,6.54-.81,1.7,0,5.75-.37,6.95,.39,.47,2.27-1.26,2.17-2.8,2.15h-5.06c-3.71,0-5.75,.08-7.2,3.15-.82,1.75-2.07,6.78-1.29,8.79,.95,2.49,5.09,1.72,8.43,1.78h0Z"/><path class="cls-6" d="M152.42,42.21c-1.13,0-6.63-.1-7.33,.14-.53,.19-1.04,.79-1.44,1.3-.22,.27-.16,.3-.44,.59,.03-.67,.06-1.35,.12-2.02h-8.58c.6,3.67-.41,6.39-1.22,10.57-.31,1.65-1.13,6.21-1.76,7.66-.34,.81-.75,1.3-1.04,1.95,3.36,0,6.73,0,10.12,.02-.56-3.95,.44-6.29,1.26-10.74,.25-1.28,.66-4.29,1.26-5.03,.73-.86,4.37-.57,5.28-.23,.22,1.21-1.63,10.3-2.24,12.54-.56,2.42-1.1,2.36-1.51,3.49,3.36-.02,6.76-.02,10.13-.02-.47-3.92,.16-5.13,1-9.41,.85-4.43,2.7-10.76-3.62-10.79h.01Z"/><path class="cls-6" d="M168.12,50.12c.69-4.74,.73-4.31,3.36-4.31,1.26,0,2.64-.43,2.67,1.15-.03,1.02-.44,2.17-.53,3.25-1.85-.03-3.68-.06-5.5-.08Zm10.06,11.91c.51-1.58,1-3.15,1.54-4.71-3.58,1.15-3.9,.78-8.01,.78-5.38,0-5.03,.4-4.37-3.94,4.4-.02,8.8-.02,13.2-.02,.47-2.25,1.39-6.19,1.44-8.31,.09-4.24-2.26-4-5.66-4-3.11,0-6.23,.02-9.34,0-3.39,0-4.87,.99-5.82,3.84-.69,2.24-1.13,5.6-1.63,8.06-1.95,9.59,0,8.33,9.37,8.33,2.99,0,6.35,.15,9.28-.02h0Z"/><path class="cls-2" d="M155.42,43c.25,.25,.51,.52,.78,.79,.47-.44,1.98-1.44,2.36-1.72,1.07-.71,3.65-2.7,4.53-3.74,1.67-1.94,3.87-3.69,4.65-7.7,.6-3.18-.69-4.78-2.2-6.11-5.94-5.22-18.87-4.09-27.17-2.52-13.02,2.46-36.81,10.26-46.75,18.24,2.48-1.09,6.01-3.03,9.06-4.41,13.11-5.81,42.26-13.55,55.24-8.79,6.51,2.37,7.17,7.1,2.89,12.14-.53,.64-.85,1.08-1.54,1.85-.6,.65-.98,1.09-1.85,1.97h0Z"/><path class="cls-6" d="M104.95,61.88h11.29c-.16-1.63-.51-1.6-.16-3.57,.75-3.41,1.54-6.83,2.29-10.25,.66-2.98,2.64-11.07,2.99-13.42-3.43-.02-6.82-.03-10.25-.03,.56,3.33,0,4.14-.69,7.2-1.32,5.77-2.64,11.55-3.93,17.33-.41,1.16-1.04,1.92-1.54,2.74h0Z"/><path class="cls-6" d="M40.18,61.85c3.77,0,7.55,.02,11.32,.03-.16-1.63-.51-1.61-.16-3.63,.95-5.08,2.7-11.56,3.8-16.89,.38-1.72,1.41-5.2,1.48-6.74h-10.22c.22,1.58,.44,1.9,.12,3.67-.82,3.5-1.61,7-2.36,10.5-.38,1.56-2.04,9.27-2.46,10.43-.44,1.16-1.04,1.87-1.54,2.64h0Z"/><path class="cls-6" d="M117.94,61.88h11.22c-.12-2.53-.63-1.15,.25-5.1,.31-1.65,.73-3.33,1.1-4.98,.75-3.27,1.41-6.65,2.24-9.89-3.46-.03-6.92-.06-10.37-.08,.6,2.47,.29,3.15-.19,5.5-.34,1.7-.78,3.43-1.17,5.11-.85,4.09-1.13,6.41-3.08,9.44h0Z"/><path class="cls-3" d="M16.35,47.39c2.83,.02,5.66,.03,8.49,.06-.69-3.7-1.35-7.41-1.98-11.09-.69,.47-6.19,10.38-6.51,11.02h0Z"/><path class="cls-6" d="M123.91,39.87c3.05,0,6.1,.02,9.18,.03,.41-1.77,.82-3.53,1.17-5.29-3.08-.02-6.1-.02-9.15-.02-.38,1.75-.78,3.5-1.19,5.27h0Z"/><path class="cls-6" d="M174.22,34.71c-.16-2.2,1.29-4,3.14-4.16,4.72-.4,5.12,7.07,.76,7.52-2.07,.2-3.68-1.41-3.9-3.36h0Zm2.67-4.7c-2.07,.4-3.68,2.57-3.17,5.25,1.04,5.35,9.08,4.09,7.96-1.89-.38-2.12-2.36-3.85-4.78-3.36Z"/><path class="cls-6" d="M176.89,34.2c-.03-.59-.03-1.16-.03-1.73h.22c.69-.01,1.61-.1,1.67,.74,.06,.99-.66,.97-1.63,.99h-.22Zm-.82,2.49h.78c0-.64-.03-1.28-.03-1.9,.66,.02,1.54-.17,1.79,.61,.1,.23,.19,.79,.19,1.3,0,0,.31,.02,.73-.01-.12-1.32-.19-1.94-.88-2.17,.44-.15,.75-.49,.75-1.02,0-.27,.03-.94-.25-1.21-.56-.51-2.17-.4-3.08-.39-.03,1.6-.03,3.19,0,4.81h0Z"/></g><g><path class="cls-4" d="M24.05,7.69c1.3-.06,2.67,.03,2.67,1.55s-1.43,1.61-2.7,1.5c0-1.02,0-2.03,.03-3.05h0Zm0-5.35c1.19-.06,2.07,.05,2.07,1.4-.03,1.27-.91,1.44-2.09,1.33,0-.91,0-1.83,.03-2.73Zm-4.6,11.4c1.65,.13,3.66,.01,5.32,.01,1.79,0,3.28,.09,4.74-.68,1.08-.58,2.07-1.72,2.07-3.52-.06-1.24-.63-2.15-1.46-2.79-.36-.3-.69-.36-.83-.59,.39-.4,.75-.59,.99-1.3,.17-.6,.17-1.55,.03-2.15-.3-1.24-1.13-1.89-2.34-2.21-1.24-.36-2.7-.27-4.1-.27s-3.06-.09-4.41,.01c-.03,4.48-.03,8.98,0,13.48h0Z"/><path class="cls-1" d="M9.25,8.73c.03-.4,.44-1.34,.58-1.77,.17-.46,.44-1.41,.69-1.72,.41,1.17,.83,2.33,1.27,3.49h-2.53ZM2.59,13.73c1.6,0,3.19,0,4.82,.01,.27-.8,.55-1.57,.86-2.36,1.52-.01,3.03-.01,4.55-.01,.25,.62,.61,1.93,.86,2.37h4.77c-.03-.3-5.4-13.06-5.65-13.5h-4.41c-.5,1.11-.99,2.21-1.46,3.33-.66,1.55-4.35,9.85-4.32,10.16h-.01Z"/><path class="cls-5" d="M43.96,13.3c0-1.28,0-2.55,.03-3.82-.41,.07-1.24,.58-1.9,.75-2.45,.62-4.79-.84-4.93-3.05-.08-1.54,1.35-2.71,2.51-3.08,2.29-.74,3.8,.58,4.35,.69,0-1.35,0-2.7,.03-4.04-.77-.62-2.89-.8-3.97-.75-3.58,.17-7.6,2.51-7.74,6.87-.14,4.43,3.94,6.89,7.57,7.13,1.13,.07,3.33-.07,4.05-.71Z"/><path class="cls-4" d="M0,18.45c6.42,.1,12.83,.22,19.28,.34-.11,.23-1.32,1.35-1.63,1.64-.22,.22-1.57,1.46-1.65,1.65,1.3-.03,13.08-1.46,14.82-1.64,2.48-.27,4.98-.54,7.44-.84,2.23-.27,4.79-.47,6.97-.76,.11-.05,.22-.07,.36-.1,.03,0,.06-.01,.08-.03-6.53-.09-13.06-.17-19.56-.25,.14-.36,3-2.79,3.47-3.33-.47-.05-1.38,.1-1.87,.17-4.27,.53-8.65,.93-12.94,1.46-4.93,.56-9.86,1.12-14.77,1.7H0Z"/></g></g></g></g></svg>