<svg xmlns="http://www.w3.org/2000/svg" width="767" height="698" fill="none" viewBox="0 0 767 698"><path fill="#fff" fill-rule="evenodd" d="m383.016 292.968 14.262 44.177 46.421-.088-37.608 27.213 14.429 44.123-37.504-27.359-37.503 27.359 14.428-44.123-37.608-27.213 46.421.088 14.262-44.177ZM267.108 695.562h-34.76c-5.029 0-8.605-1.111-10.749-3.364-2.144-2.248-3.23-5.848-3.23-10.748v-85.51c0-5.004 1.111-8.605 3.309-10.799 2.198-2.198 5.745-3.309 10.67-3.309h36.85c5.428 0 10.141.341 14.112 1.003 3.996.691 7.572 1.961 10.724 3.892 2.697 1.591 5.053 3.626 7.147 6.091a26.974 26.974 0 0 1 4.713 8.126 27.436 27.436 0 0 1 1.64 9.424c0 11.386-5.691 19.724-17.076 24.99 14.957 4.767 22.425 14.008 22.425 27.775 0 6.353-1.644 12.098-4.9 17.18-3.255 5.108-7.651 8.867-13.183 11.278-3.468 1.457-7.44 2.489-11.94 3.072-4.5.608-9.77.899-15.752.899Zm-1.719-50.512h-23.987v33.199h24.753c15.594 0 23.374-5.612 23.374-16.839 0-5.745-2.01-9.9-6.061-12.493-4.025-2.569-10.062-3.867-18.079-3.867Zm-23.987-45.905v29.386h21.127c5.745 0 10.165-.558 13.288-1.644 3.151-1.083 5.532-3.147 7.201-6.195 1.299-2.168 1.932-4.604 1.932-7.281 0-5.744-2.036-9.553-6.14-11.435-4.08-1.878-10.324-2.831-18.692-2.831h-18.716Zm177.772 62.319c0 6.856-1.773 13.025-5.324 18.504-3.517 5.482-8.709 9.77-15.54 12.867-6.827 3.097-14.928 4.634-24.274 4.634-11.227 0-20.494-2.119-27.77-6.328-5.167-3.043-9.346-7.123-12.577-12.206-3.23-5.082-4.845-10.032-4.845-14.849 0-2.78.978-5.166 2.914-7.177 1.931-1.985 4.392-2.963 7.385-2.963 2.435 0 4.475.766 6.14 2.331 1.694 1.532 3.126 3.838 4.317 6.906 1.428 3.601 3.018 6.648 4.687 9.054 1.695 2.436 4.051 4.45 7.094 6.036 3.072 1.562 7.069 2.357 12.043 2.357 6.807 0 12.364-1.586 16.627-4.763 4.263-3.18 6.407-7.151 6.407-11.914 0-3.788-1.137-6.856-3.443-9.187-2.302-2.357-5.291-4.155-8.946-5.4-3.626-1.244-8.526-2.568-14.612-3.971-8.155-1.907-15.011-4.159-20.494-6.698-5.507-2.569-9.874-6.065-13.105-10.486-3.23-4.421-4.841-9.9-4.841-16.494 0-6.244 1.694-11.806 5.108-16.676 3.413-4.846 8.367-8.576 14.824-11.199 6.461-2.622 14.058-3.917 22.796-3.917 6.96 0 12.996.874 18.108 2.594 5.083 1.748 9.317 4.05 12.681 6.91 3.334 2.86 5.799 5.878 7.36 9.025 1.536 3.151 2.327 6.249 2.327 9.242 0 2.726-.979 5.216-2.91 7.41-1.932 2.198-4.367 3.284-7.256 3.284-2.648 0-4.633-.662-6.007-1.96-1.378-1.324-2.86-3.493-4.45-6.486-2.09-4.288-4.55-7.652-7.464-10.058-2.885-2.41-7.544-3.601-13.979-3.601-5.928 0-10.749 1.295-14.375 3.918-3.655 2.622-5.478 5.744-5.478 9.424 0 2.277.607 4.238 1.852 5.903 1.245 1.645 2.964 3.073 5.133 4.263a35.499 35.499 0 0 0 6.594 2.806c2.223.662 5.903 1.644 11.015 2.939 6.407 1.511 12.231 3.151 17.418 4.979 5.191 1.798 9.612 3.996 13.263 6.59 3.655 2.568 6.485 5.853 8.525 9.795 2.04 3.971 3.072 8.817 3.072 14.562Zm57.952 16.943-18.242-72.435v78.471c0 4.342-.978 7.597-2.909 9.77-1.936 2.169-4.5 3.256-7.681 3.256-3.097 0-5.637-1.087-7.597-3.231-1.957-2.144-2.939-5.399-2.939-9.795v-89.96c0-4.975 1.299-8.309 3.867-10.058 2.594-1.723 6.086-2.593 10.457-2.593h7.148c4.288 0 7.385.395 9.317 1.161 1.935.77 3.388 2.173 4.316 4.184.929 2.015 1.986 5.295 3.177 9.849l16.518 62.319 16.523-62.319c1.19-4.554 2.248-7.834 3.176-9.849.928-2.011 2.356-3.414 4.288-4.184 1.931-.766 5.058-1.161 9.345-1.161h7.123c4.392 0 7.889.87 10.482 2.593 2.569 1.749 3.868 5.083 3.868 10.058v89.96c0 4.342-.983 7.597-2.914 9.77-1.932 2.169-4.525 3.256-7.756 3.256-3.047 0-5.561-1.087-7.518-3.256-1.961-2.173-2.939-5.428-2.939-9.77v-78.471l-18.242 72.435c-1.19 4.687-2.144 8.155-2.91 10.353-.745 2.169-2.119 4.179-4.134 5.982-2.035 1.828-4.816 2.727-8.392 2.727-2.697 0-4.975-.583-6.827-1.749-1.852-1.165-3.31-2.647-4.342-4.446a25.336 25.336 0 0 1-2.435-6.011c-.612-2.198-1.22-4.5-1.828-6.856Z" clip-rule="evenodd"/><path fill="#fff" fill-rule="evenodd" d="M38.34 543.258c93.154-65.669 185.116-90.572 286.574-87.013 19.566.687 39.427 2.194 59.497 4.713 20.069-2.519 39.93-4.026 59.496-4.713 101.458-3.559 193.421 21.344 286.574 87.013 5.924 4.176 12.064 10.391 8.742 18.858-1.661 4.234-8.134 7.943-22.151-5.191-66.556-62.352-176.586-93.382-269.772-92.704-10.474.075-21.11.558-31.863 1.428 98.515 17.489 201.347 61.033 300.649 151.996 0 0-5.225 1.062-15.67 11.506-95.197-91.08-209.964-144.157-316.005-159.93-106.042 15.773-220.809 68.85-316.006 159.93-10.445-10.444-15.67-11.506-15.67-11.506 99.302-90.963 202.134-134.507 300.65-151.996-10.753-.87-21.389-1.353-31.863-1.428-93.187-.678-203.216 30.352-269.773 92.704-14.016 13.134-20.49 9.425-22.15 5.191-3.323-8.467 2.818-14.682 8.741-18.858ZM383.074 245.977C372.272 199.719 329.897 51.17 356.59 13.159c12.996-18.504 39.41-16.851 52.227.932 28.417 39.427-16.476 189.108-25.743 231.886Zm136.989 137.659c46.458-9.933 195.777-49.497 233.28-22.097 18.255 13.347 16.102 39.723-1.915 52.203-39.955 27.667-188.766-20.036-231.365-30.106Zm-84.174-133.204c6.648-32.492 23.117-139.062 51.133-155.38 13.642-7.943 29.91.815 32.853 15.831 6.52 33.295-65.624 115.117-83.986 139.549Zm46.466 36.962c25.827-39.872 103.436-173.435 149.328-180.578 22.346-3.472 39.476 16.701 35.559 38.269-8.688 47.815-147.646 119.309-184.887 142.309Zm31.322 44.173c27.379-18.721 113.339-83.829 144.819-76.065 15.324 3.784 20.918 21.393 12.589 34.227-18.475 28.454-127.219 37.058-157.408 41.838Zm-230-44.173c-25.827-39.872-103.436-173.435-149.328-180.578-22.342-3.476-39.477 16.701-35.56 38.269 8.689 47.815 147.646 119.309 184.888 142.309Zm-31.326 44.173c-27.371-18.717-113.335-83.829-144.815-76.065-15.324 3.78-20.923 21.389-12.589 34.223 18.475 28.454 127.227 37.062 157.404 41.842Zm77.788-81.135c-6.644-32.492-23.113-139.062-51.129-155.38-13.642-7.943-29.91.811-32.854 15.831-6.515 33.295 65.628 115.121 83.983 139.549Zm-84.174 133.204c-46.454-9.928-195.773-49.497-233.277-22.097-18.254 13.342-16.106 39.723 1.915 52.203 39.956 27.667 188.767-20.036 231.362-30.106Z" clip-rule="evenodd"/></svg>